Coordinates
version=1
nRows=16
nColumns=40
inDegrees=yes

Units are S.I. units (second, meters, Newtons, ...)
Angles are in degrees.

endheader
time	pelvis_tilt	pelvis_list	pelvis_rotation	pelvis_tx	pelvis_ty	pelvis_tz	hip_flexion_r	hip_adduction_r	hip_rotation_r	knee_angle_r	knee_angle_r_beta	ankle_angle_r	subtalar_angle_r	mtp_angle_r	hip_flexion_l	hip_adduction_l	hip_rotation_l	knee_angle_l	knee_angle_l_beta	ankle_angle_l	subtalar_angle_l	mtp_angle_l	lumbar_extension	lumbar_bending	lumbar_rotation	arm_flex_r	arm_add_r	arm_rot_r	elbow_flex_r	pro_sup_r	wrist_flex_r	wrist_dev_r	arm_flex_l	arm_add_l	arm_rot_l	elbow_flex_l	pro_sup_l	wrist_flex_l	wrist_dev_l
      6.22000000	     -5.32611382	     -5.74204836	      1.23980530	      0.76897534	      0.92447575	      0.46188684	      2.71916840	     -0.10459633	    -16.20532035	     23.29442251	     23.29442251	     15.89708082	      3.78601383	     -5.51289949	     27.16789852	     -6.58196544	     -3.70686006	     24.34561176	     24.34561176	      6.58029290	    -11.79033040	      3.79835840	     -8.18079787	      6.56080446	      3.33224742	     29.37124632	    -15.51770276	     -0.36338832	    103.25762139	     44.23612593	      0.00000000	      0.00000000	     -8.04270952	    -10.40487656	     -2.28800098	     38.93735112	     45.43592524	      0.00000000	      0.00000000
      6.23342857	     -5.35268634	     -5.71610879	      1.04334897	      0.76878672	      0.92518316	      0.45916485	      4.02559861	     -0.81152792	    -15.75273404	     26.42722514	     26.42722514	     15.15499154	      2.55508055	     -6.45689495	     26.65972505	     -6.53807726	     -4.19038083	     24.35396830	     24.35396830	      7.23837809	    -11.32566316	      3.49977127	     -8.20209432	      6.35848094	      3.33726099	     28.40695610	    -15.52631155	     -0.43000857	    102.20910377	     44.27518657	      0.00000000	      0.00000000	     -7.50724539	    -10.49206434	     -2.27784142	     39.11536395	     45.44835575	      0.00000000	      0.00000000
      6.24685714	     -5.44652547	     -5.81044688	      0.81288243	      0.76839559	      0.92567888	      0.45682146	      5.46640008	     -1.23229209	    -14.96201682	     29.38819581	     29.38819581	     12.98667277	      0.11983668	    -10.63878514	     26.29942034	     -6.71158147	     -4.85244713	     24.47738079	     24.47738079	      7.98490715	    -10.46874919	      3.22734864	     -8.09110927	      6.26871252	      3.10235752	     27.63468170	    -15.15902675	     -0.64486126	    100.28395273	     44.41274533	      0.00000000	      0.00000000	     -7.20500222	    -10.74744383	     -1.99722011	     39.50061827	     45.48755152	      0.00000000	      0.00000000
      6.26028571	     -5.46227069	     -5.72240001	      0.56950467	      0.76785443	      0.92620400	      0.45445607	      7.15393848	     -2.01113412	    -14.46392857	     33.07305541	     33.07305541	     12.04806939	     -1.30401379	    -11.10362504	     25.73421245	     -6.63121095	     -5.42174118	     24.37683012	     24.37683012	      8.48474293	    -10.00821621	      2.86352549	     -8.16899554	      5.98247618	      3.04980469	     26.43166814	    -15.14648624	     -0.48951259	     99.41837397	     44.43768541	      0.00000000	      0.00000000	     -6.60187748	    -10.93085876	     -2.05625732	     39.79576943	     45.51003440	      0.00000000	      0.00000000
      6.27371429	     -5.46296045	     -5.66885254	      0.33435456	      0.76715793	      0.92660255	      0.45231041	      8.94673096	     -2.68506361	    -13.88523088	     36.83368417	     36.83368417	     10.98147248	     -2.96924711	    -11.37538235	     25.21487390	     -6.60570296	     -5.98470007	     24.36105223	     24.36105223	      8.97738536	     -9.51386259	      2.43314100	     -8.25797778	      5.71853041	      2.92788705	     25.14287100	    -15.03688036	     -0.35076929	     98.38448058	     44.46682661	      0.00000000	      0.00000000	     -5.94567664	    -11.15803681	     -2.09834334	     40.11441331	     45.53029015	      0.00000000	      0.00000000
      6.28714286	     -5.51451521	     -5.65488204	      0.10144694	      0.76626348	      0.92685996	      0.45038117	     10.89890854	     -3.20499912	    -13.16919130	     40.59210933	     40.59210933	      9.82924829	     -4.88337942	    -11.33370761	     24.77101918	     -6.64182939	     -6.56592902	     24.33919418	     24.33919418	      9.41941878	     -8.91749577	      1.94410492	     -8.24907041	      5.52972086	      2.78844100	     23.77589810	    -14.90576666	     -0.24804798	     97.11428057	     44.50520556	      0.00000000	      0.00000000	     -5.29754918	    -11.42923539	     -2.10831069	     40.44144317	     45.54810556	      0.00000000	      0.00000000
      6.30057143	     -5.53753704	     -5.73312598	     -0.12864306	      0.76525273	      0.92713573	      0.44874430	     12.85178324	     -3.48238454	    -12.40372921	     44.19838154	     44.19838154	      8.75107151	     -7.01860704	    -10.53851280	     24.35646555	     -6.82568908	     -7.20791965	     24.41375997	     24.41375997	      9.85888681	     -8.15365744	      1.23279118	     -8.31209517	      5.37468442	      2.59051089	     22.39535912	    -14.65120861	     -0.21469351	     95.29793243	     44.56961667	      0.00000000	      0.00000000	     -4.54350897	    -11.72988871	     -1.96573622	     40.79424908	     45.55840867	      0.00000000	      0.00000000
      6.31400000	     -5.51933934	     -5.62618442	     -0.34588191	      0.76420851	      0.92742246	      0.44702214	     14.78057234	     -4.06199444	    -11.89904686	     47.70842429	     47.70842429	      7.80852642	     -8.39137510	     -9.99913703	     23.80700873	     -6.73526634	     -7.73178452	     24.31381347	     24.31381347	     10.23282646	     -7.73381544	      0.85782373	     -8.42550535	      5.07045939	      2.30755890	     20.85905719	    -14.46785292	      0.02252702	     94.05215214	     44.60190617	      0.00000000	      0.00000000	     -3.76284533	    -12.06456880	     -1.91292672	     41.04001300	     45.57112195	      0.00000000	      0.00000000
      6.32742857	     -5.46464673	     -5.64455115	     -0.53225979	      0.76310909	      0.92781345	      0.44550928	     16.70185647	     -4.37622565	    -11.34774509	     51.10001326	     51.10001326	      7.93273754	     -9.28942642	     -6.36568540	     23.26176432	     -6.83040033	     -8.36136737	     24.27370301	     24.27370301	     10.54533310	     -7.01609001	     -0.04550263	     -8.50600556	      4.90899154	      1.89089491	     19.56133686	    -13.98104747	      0.08494562	     91.45380734	     44.71075135	      0.00000000	      0.00000000	     -2.78752302	    -12.56311711	     -1.08179372	     40.86818152	     45.53783945	      0.00000000	      0.00000000
      6.34085714	     -5.41052406	     -5.59943896	     -0.68663798	      0.76197423	      0.92824843	      0.44396391	     18.49024325	     -4.71799302	    -10.87549700	     53.93830157	     53.93830157	      7.26535294	    -10.43412419	     -5.47714804	     22.67969556	     -6.73935345	     -8.61778938	     24.13885361	     24.13885361	     10.91729879	     -6.78725952	     -0.30632652	     -8.60124910	      4.70875985	      1.85630133	     17.66539364	    -14.14094959	      0.37867269	     89.94540750	     44.75148060	      0.00000000	      0.00000000	     -1.68001890	    -12.81967579	     -0.98390671	     41.17390196	     45.55714050	      0.00000000	      0.00000000
      6.35428571	     -5.38016025	     -5.51882854	     -0.83463613	      0.76071595	      0.92873916	      0.44249414	     20.24361436	     -5.07867677	    -10.48168462	     56.40045485	     56.40045485	      6.70060215	    -11.26602589	     -5.01186068	     22.08586074	     -6.61828612	     -8.98175530	     23.91174602	     23.91174602	     11.23324695	     -6.50085597	     -0.50120339	     -8.79156948	      4.47023613	      1.58174631	     15.79416802	    -14.07253559	      0.65482002	     88.47792828	     44.78606560	      0.00000000	      0.00000000	     -0.65965932	    -13.11485706	     -0.92731382	     41.34915750	     45.57094179	      0.00000000	      0.00000000
      6.36771429	     -5.27207784	     -5.59098290	     -0.97733957	      0.75950757	      0.92947325	      0.44123711	     21.81698561	     -5.18110333	    -10.13705673	     58.44658706	     58.44658706	      6.79699171	    -11.67846988	     -2.92182481	     21.42126577	     -6.69664937	     -9.38721569	     23.71315926	     23.71315926	     11.49674000	     -6.03001846	     -0.96995111	     -8.91081569	      4.38719535	      1.44226685	     14.21319220	    -13.86580390	      0.58053240	     85.08449711	     44.90563467	      0.00000000	      0.00000000	      0.87834473	    -13.39363736	     -0.16677952	     40.66478244	     45.53207262	      0.00000000	      0.00000000
      6.38114286	     -5.19646788	     -5.58885713	     -1.01752311	      0.75828514	      0.93016829	      0.43989114	     23.26076163	     -5.38460839	     -9.94429530	     59.92866967	     59.92866967	      6.45170663	    -12.04883900	     -2.75623864	     20.76882103	     -6.59576989	     -9.51121292	     23.42782177	     23.42782177	     11.81117353	     -5.84070342	     -1.08654291	     -9.11501873	      4.28000440	      1.01510934	     12.18783079	    -13.78527311	      0.93723778	     83.78859739	     44.92929526	      0.00000000	      0.00000000	      1.95549985	    -13.70039448	     -0.17668600	     40.98585598	     45.55177095	      0.00000000	      0.00000000
      6.39457143	     -5.14289878	     -5.61613509	     -1.17397091	      0.75701061	      0.93095298	      0.43878769	     24.68543375	     -5.41338952	     -9.58662700	     61.01228672	     61.01228672	      6.38372933	    -12.18352729	     -2.07440738	     20.04377515	     -6.56713739	     -9.80283937	     22.98480733	     22.98480733	     12.00963142	     -5.56300451	     -1.32418988	     -9.18785131	      4.19315755	      1.34741359	     10.40631116	    -14.11110177	      1.00010948	     80.35344654	     45.03694308	      0.00000000	      0.00000000	      3.57151146	    -13.74250677	      0.21479703	     40.95612885	     45.54362825	      0.00000000	      0.00000000
      6.40800000	     -5.14538025	     -5.62415814	     -1.28474701	      0.75568943	      0.93165657	      0.43774651	     26.01788902	     -5.43642829	     -9.30443568	     61.56234317	     61.56234317	      6.27964818	    -12.11438839	     -1.79839421	     19.38553325	     -6.48788904	     -9.98543191	     22.52843075	     22.52843075	     12.23227579	     -5.33340324	     -1.49548390	     -9.25581351	      4.12550588	      1.28720232	      8.52415186	    -14.14454549	      1.19695375	     77.76000352	     45.10973089	      0.00000000	      0.00000000	      4.88019848	    -13.87892757	      0.41403730	     41.09098796	     45.54746983	      0.00000000	      0.00000000
      6.42142857	     -5.06359751	     -5.75164916	     -1.33827977	      0.75442419	      0.93252830	      0.43684056	     27.07912017	     -5.30657874	     -9.16449210	     61.59235175	     61.59235175	      6.39144403	    -11.77485929	     -1.20325511	     18.65951813	     -6.52669120	    -10.05961991	     22.08495088	     22.08495088	     12.28698108	     -5.24309811	     -1.99463714	     -9.35344049	      4.16070096	      0.93064288	      7.46096420	    -13.63702430	      1.01833215	     73.01130456	     45.27156982	      0.00000000	      0.00000000	      6.37155798	    -14.17115187	      1.19203683	     40.39367254	     45.51004907	      0.00000000	      0.00000000
